<svg width="17" height="17" viewBox="0 0 17 17" fill="none" xmlns="http://www.w3.org/2000/svg">
<path d="M14.8369 12.2996C14.4465 12.2996 14.117 12.1574 13.8483 11.8731C13.5796 11.5888 13.4456 11.2512 13.4463 10.8602V5.34661L2.56546 16.2274C2.28897 16.5039 1.96335 16.6422 1.58863 16.6422C1.2139 16.6422 0.888936 16.5039 0.613745 16.2274C0.337252 15.9509 0.199005 15.6253 0.199005 15.2506C0.199005 14.8759 0.337252 14.5509 0.613745 14.2757L11.4945 3.3949L5.93216 3.3949C5.54182 3.3949 5.21231 3.26056 4.94362 2.99187C4.67494 2.72318 4.54092 2.39399 4.54157 2.0043C4.54157 1.61396 4.67591 1.28445 4.9446 1.01576C5.21328 0.747074 5.54247 0.613056 5.93217 0.613706L14.8613 0.613708C15.0564 0.613708 15.2314 0.650138 15.3863 0.723002C15.5411 0.795866 15.6833 0.89768 15.8127 1.02845C15.9428 1.15856 16.0443 1.30104 16.1172 1.45587C16.19 1.61071 16.2268 1.78539 16.2275 1.97991V10.9578C16.2275 11.3156 16.0934 11.6285 15.8254 11.8966C15.5574 12.1646 15.2279 12.2989 14.8369 12.2996Z" fill="white"/>
</svg>
