<svg width="338" height="223" viewBox="0 0 338 223" fill="none" xmlns="http://www.w3.org/2000/svg">
<circle cx="1" cy="1" r="1" fill="#3C3B3B"/>
<circle cx="13" cy="1" r="1" fill="#3C3B3B"/>
<circle cx="25" cy="1" r="1" fill="#3C3B3B"/>
<circle cx="37" cy="1" r="1" fill="#3C3B3B"/>
<circle cx="49" cy="1" r="1" fill="#3C3B3B"/>
<circle cx="61" cy="1" r="1" fill="#3C3B3B"/>
<circle cx="73" cy="1" r="1" fill="#3C3B3B"/>
<circle cx="85" cy="1" r="1" fill="#3C3B3B"/>
<circle cx="97" cy="1" r="1" fill="#3C3B3B"/>
<circle cx="109" cy="1" r="1" fill="#3C3B3B"/>
<circle cx="121" cy="1" r="1" fill="#3C3B3B"/>
<circle cx="133" cy="1" r="1" fill="#3C3B3B"/>
<circle cx="145" cy="1" r="1" fill="#3C3B3B"/>
<circle cx="157" cy="1" r="1" fill="#3C3B3B"/>
<circle cx="169" cy="1" r="1" fill="#3C3B3B"/>
<circle cx="181" cy="1" r="1" fill="#3C3B3B"/>
<circle cx="193" cy="1" r="1" fill="#3C3B3B"/>
<circle cx="205" cy="1" r="1" fill="#3C3B3B"/>
<circle cx="217" cy="1" r="1" fill="#3C3B3B"/>
<circle cx="229" cy="1" r="1" fill="#3C3B3B"/>
<circle cx="241" cy="1" r="1" fill="#3C3B3B"/>
<circle cx="253" cy="1" r="1" fill="#3C3B3B"/>
<circle cx="265" cy="1" r="1" fill="#3C3B3B"/>
<circle cx="277" cy="1" r="1" fill="#3C3B3B"/>
<circle cx="289" cy="1" r="1" fill="#3C3B3B"/>
<circle cx="301" cy="1" r="1" fill="#3C3B3B"/>
<circle cx="313" cy="1" r="1" fill="#3C3B3B"/>
<circle cx="325" cy="1" r="1" fill="#3C3B3B"/>
<circle cx="337" cy="1" r="1" fill="#3C3B3B"/>
<circle cx="1" cy="18" r="1" fill="#3C3B3B"/>
<circle cx="13" cy="18" r="1" fill="#3C3B3B"/>
<circle cx="25" cy="18" r="1" fill="#3C3B3B"/>
<circle cx="37" cy="18" r="1" fill="#3C3B3B"/>
<circle cx="49" cy="18" r="1" fill="#3C3B3B"/>
<circle cx="61" cy="18" r="1" fill="#3C3B3B"/>
<circle cx="73" cy="18" r="1" fill="#3C3B3B"/>
<circle cx="85" cy="18" r="1" fill="#3C3B3B"/>
<circle cx="97" cy="18" r="1" fill="#3C3B3B"/>
<circle cx="109" cy="18" r="1" fill="#3C3B3B"/>
<circle cx="121" cy="18" r="1" fill="#3C3B3B"/>
<circle cx="133" cy="18" r="1" fill="#3C3B3B"/>
<circle cx="145" cy="18" r="1" fill="#3C3B3B"/>
<circle cx="157" cy="18" r="1" fill="#3C3B3B"/>
<circle cx="169" cy="18" r="1" fill="#3C3B3B"/>
<circle cx="181" cy="18" r="1" fill="#3C3B3B"/>
<circle cx="193" cy="18" r="1" fill="#3C3B3B"/>
<circle cx="205" cy="18" r="1" fill="#3C3B3B"/>
<circle cx="217" cy="18" r="1" fill="#3C3B3B"/>
<circle cx="229" cy="18" r="1" fill="#3C3B3B"/>
<circle cx="241" cy="18" r="1" fill="#3C3B3B"/>
<circle cx="253" cy="18" r="1" fill="#3C3B3B"/>
<circle cx="265" cy="18" r="1" fill="#3C3B3B"/>
<circle cx="277" cy="18" r="1" fill="#3C3B3B"/>
<circle cx="289" cy="18" r="1" fill="#3C3B3B"/>
<circle cx="301" cy="18" r="1" fill="#3C3B3B"/>
<circle cx="313" cy="18" r="1" fill="#3C3B3B"/>
<circle cx="325" cy="18" r="1" fill="#3C3B3B"/>
<circle cx="337" cy="18" r="1" fill="#3C3B3B"/>
<circle cx="1" cy="35" r="1" fill="#3C3B3B"/>
<circle cx="13" cy="35" r="1" fill="#3C3B3B"/>
<circle cx="25" cy="35" r="1" fill="#3C3B3B"/>
<circle cx="37" cy="35" r="1" fill="#3C3B3B"/>
<circle cx="49" cy="35" r="1" fill="#3C3B3B"/>
<circle cx="61" cy="35" r="1" fill="#3C3B3B"/>
<circle cx="73" cy="35" r="1" fill="#3C3B3B"/>
<circle cx="85" cy="35" r="1" fill="#3C3B3B"/>
<circle cx="97" cy="35" r="1" fill="#3C3B3B"/>
<circle cx="109" cy="35" r="1" fill="#3C3B3B"/>
<circle cx="121" cy="35" r="1" fill="#3C3B3B"/>
<circle cx="133" cy="35" r="1" fill="#3C3B3B"/>
<circle cx="145" cy="35" r="1" fill="#3C3B3B"/>
<circle cx="157" cy="35" r="1" fill="#3C3B3B"/>
<circle cx="169" cy="35" r="1" fill="#3C3B3B"/>
<circle cx="181" cy="35" r="1" fill="#3C3B3B"/>
<circle cx="193" cy="35" r="1" fill="#3C3B3B"/>
<circle cx="205" cy="35" r="1" fill="#3C3B3B"/>
<circle cx="217" cy="35" r="1" fill="#3C3B3B"/>
<circle cx="229" cy="35" r="1" fill="#3C3B3B"/>
<circle cx="241" cy="35" r="1" fill="#3C3B3B"/>
<circle cx="253" cy="35" r="1" fill="#3C3B3B"/>
<circle cx="265" cy="35" r="1" fill="#3C3B3B"/>
<circle cx="277" cy="35" r="1" fill="#3C3B3B"/>
<circle cx="289" cy="35" r="1" fill="#3C3B3B"/>
<circle cx="301" cy="35" r="1" fill="#3C3B3B"/>
<circle cx="313" cy="35" r="1" fill="#3C3B3B"/>
<circle cx="325" cy="35" r="1" fill="#3C3B3B"/>
<circle cx="337" cy="35" r="1" fill="#3C3B3B"/>
<circle cx="1" cy="52" r="1" fill="#3C3B3B"/>
<circle cx="13" cy="52" r="1" fill="#3C3B3B"/>
<circle cx="25" cy="52" r="1" fill="#3C3B3B"/>
<circle cx="37" cy="52" r="1" fill="#3C3B3B"/>
<circle cx="49" cy="52" r="1" fill="#3C3B3B"/>
<circle cx="61" cy="52" r="1" fill="#3C3B3B"/>
<circle cx="73" cy="52" r="1" fill="#3C3B3B"/>
<circle cx="85" cy="52" r="1" fill="#3C3B3B"/>
<circle cx="97" cy="52" r="1" fill="#3C3B3B"/>
<circle cx="109" cy="52" r="1" fill="#3C3B3B"/>
<circle cx="121" cy="52" r="1" fill="#3C3B3B"/>
<circle cx="133" cy="52" r="1" fill="#3C3B3B"/>
<circle cx="145" cy="52" r="1" fill="#3C3B3B"/>
<circle cx="157" cy="52" r="1" fill="#3C3B3B"/>
<circle cx="169" cy="52" r="1" fill="#3C3B3B"/>
<circle cx="181" cy="52" r="1" fill="#3C3B3B"/>
<circle cx="193" cy="52" r="1" fill="#3C3B3B"/>
<circle cx="205" cy="52" r="1" fill="#3C3B3B"/>
<circle cx="217" cy="52" r="1" fill="#3C3B3B"/>
<circle cx="229" cy="52" r="1" fill="#3C3B3B"/>
<circle cx="241" cy="52" r="1" fill="#3C3B3B"/>
<circle cx="253" cy="52" r="1" fill="#3C3B3B"/>
<circle cx="265" cy="52" r="1" fill="#3C3B3B"/>
<circle cx="277" cy="52" r="1" fill="#3C3B3B"/>
<circle cx="289" cy="52" r="1" fill="#3C3B3B"/>
<circle cx="301" cy="52" r="1" fill="#3C3B3B"/>
<circle cx="313" cy="52" r="1" fill="#3C3B3B"/>
<circle cx="325" cy="52" r="1" fill="#3C3B3B"/>
<circle cx="337" cy="52" r="1" fill="#3C3B3B"/>
<circle cx="1" cy="69" r="1" fill="#3C3B3B"/>
<circle cx="13" cy="69" r="1" fill="#3C3B3B"/>
<circle cx="25" cy="69" r="1" fill="#3C3B3B"/>
<circle cx="37" cy="69" r="1" fill="#3C3B3B"/>
<circle cx="49" cy="69" r="1" fill="#3C3B3B"/>
<circle cx="61" cy="69" r="1" fill="#3C3B3B"/>
<circle cx="73" cy="69" r="1" fill="#3C3B3B"/>
<circle cx="85" cy="69" r="1" fill="#3C3B3B"/>
<circle cx="97" cy="69" r="1" fill="#3C3B3B"/>
<circle cx="109" cy="69" r="1" fill="#3C3B3B"/>
<circle cx="121" cy="69" r="1" fill="#3C3B3B"/>
<circle cx="133" cy="69" r="1" fill="#3C3B3B"/>
<circle cx="145" cy="69" r="1" fill="#3C3B3B"/>
<circle cx="157" cy="69" r="1" fill="#3C3B3B"/>
<circle cx="169" cy="69" r="1" fill="#3C3B3B"/>
<circle cx="181" cy="69" r="1" fill="#3C3B3B"/>
<circle cx="193" cy="69" r="1" fill="#3C3B3B"/>
<circle cx="205" cy="69" r="1" fill="#3C3B3B"/>
<circle cx="217" cy="69" r="1" fill="#3C3B3B"/>
<circle cx="229" cy="69" r="1" fill="#3C3B3B"/>
<circle cx="241" cy="69" r="1" fill="#3C3B3B"/>
<circle cx="253" cy="69" r="1" fill="#3C3B3B"/>
<circle cx="265" cy="69" r="1" fill="#3C3B3B"/>
<circle cx="277" cy="69" r="1" fill="#3C3B3B"/>
<circle cx="289" cy="69" r="1" fill="#3C3B3B"/>
<circle cx="301" cy="69" r="1" fill="#3C3B3B"/>
<circle cx="313" cy="69" r="1" fill="#3C3B3B"/>
<circle cx="325" cy="69" r="1" fill="#3C3B3B"/>
<circle cx="337" cy="69" r="1" fill="#3C3B3B"/>
<circle cx="1" cy="86" r="1" fill="#3C3B3B"/>
<circle cx="13" cy="86" r="1" fill="#3C3B3B"/>
<circle cx="25" cy="86" r="1" fill="#3C3B3B"/>
<circle cx="37" cy="86" r="1" fill="#3C3B3B"/>
<circle cx="49" cy="86" r="1" fill="#3C3B3B"/>
<circle cx="61" cy="86" r="1" fill="#3C3B3B"/>
<circle cx="73" cy="86" r="1" fill="#3C3B3B"/>
<circle cx="85" cy="86" r="1" fill="#3C3B3B"/>
<circle cx="97" cy="86" r="1" fill="#3C3B3B"/>
<circle cx="109" cy="86" r="1" fill="#3C3B3B"/>
<circle cx="121" cy="86" r="1" fill="#3C3B3B"/>
<circle cx="133" cy="86" r="1" fill="#3C3B3B"/>
<circle cx="145" cy="86" r="1" fill="#3C3B3B"/>
<circle cx="157" cy="86" r="1" fill="#3C3B3B"/>
<circle cx="169" cy="86" r="1" fill="#3C3B3B"/>
<circle cx="181" cy="86" r="1" fill="#3C3B3B"/>
<circle cx="193" cy="86" r="1" fill="#3C3B3B"/>
<circle cx="205" cy="86" r="1" fill="#3C3B3B"/>
<circle cx="217" cy="86" r="1" fill="#3C3B3B"/>
<circle cx="229" cy="86" r="1" fill="#3C3B3B"/>
<circle cx="241" cy="86" r="1" fill="#3C3B3B"/>
<circle cx="253" cy="86" r="1" fill="#3C3B3B"/>
<circle cx="265" cy="86" r="1" fill="#3C3B3B"/>
<circle cx="277" cy="86" r="1" fill="#3C3B3B"/>
<circle cx="289" cy="86" r="1" fill="#3C3B3B"/>
<circle cx="301" cy="86" r="1" fill="#3C3B3B"/>
<circle cx="313" cy="86" r="1" fill="#3C3B3B"/>
<circle cx="325" cy="86" r="1" fill="#3C3B3B"/>
<circle cx="337" cy="86" r="1" fill="#3C3B3B"/>
<circle cx="1" cy="103" r="1" fill="#3C3B3B"/>
<circle cx="13" cy="103" r="1" fill="#3C3B3B"/>
<circle cx="25" cy="103" r="1" fill="#3C3B3B"/>
<circle cx="37" cy="103" r="1" fill="#3C3B3B"/>
<circle cx="49" cy="103" r="1" fill="#3C3B3B"/>
<circle cx="61" cy="103" r="1" fill="#3C3B3B"/>
<circle cx="73" cy="103" r="1" fill="#3C3B3B"/>
<circle cx="85" cy="103" r="1" fill="#3C3B3B"/>
<circle cx="97" cy="103" r="1" fill="#3C3B3B"/>
<circle cx="109" cy="103" r="1" fill="#3C3B3B"/>
<circle cx="121" cy="103" r="1" fill="#3C3B3B"/>
<circle cx="133" cy="103" r="1" fill="#3C3B3B"/>
<circle cx="145" cy="103" r="1" fill="#3C3B3B"/>
<circle cx="157" cy="103" r="1" fill="#3C3B3B"/>
<circle cx="169" cy="103" r="1" fill="#3C3B3B"/>
<circle cx="181" cy="103" r="1" fill="#3C3B3B"/>
<circle cx="193" cy="103" r="1" fill="#3C3B3B"/>
<circle cx="205" cy="103" r="1" fill="#3C3B3B"/>
<circle cx="217" cy="103" r="1" fill="#3C3B3B"/>
<circle cx="229" cy="103" r="1" fill="#3C3B3B"/>
<circle cx="241" cy="103" r="1" fill="#3C3B3B"/>
<circle cx="253" cy="103" r="1" fill="#3C3B3B"/>
<circle cx="265" cy="103" r="1" fill="#3C3B3B"/>
<circle cx="277" cy="103" r="1" fill="#3C3B3B"/>
<circle cx="289" cy="103" r="1" fill="#3C3B3B"/>
<circle cx="301" cy="103" r="1" fill="#3C3B3B"/>
<circle cx="313" cy="103" r="1" fill="#3C3B3B"/>
<circle cx="325" cy="103" r="1" fill="#3C3B3B"/>
<circle cx="337" cy="103" r="1" fill="#3C3B3B"/>
<circle cx="1" cy="120" r="1" fill="#3C3B3B"/>
<circle cx="13" cy="120" r="1" fill="#3C3B3B"/>
<circle cx="25" cy="120" r="1" fill="#3C3B3B"/>
<circle cx="37" cy="120" r="1" fill="#3C3B3B"/>
<circle cx="49" cy="120" r="1" fill="#3C3B3B"/>
<circle cx="61" cy="120" r="1" fill="#3C3B3B"/>
<circle cx="73" cy="120" r="1" fill="#3C3B3B"/>
<circle cx="85" cy="120" r="1" fill="#3C3B3B"/>
<circle cx="97" cy="120" r="1" fill="#3C3B3B"/>
<circle cx="109" cy="120" r="1" fill="#3C3B3B"/>
<circle cx="121" cy="120" r="1" fill="#3C3B3B"/>
<circle cx="133" cy="120" r="1" fill="#3C3B3B"/>
<circle cx="145" cy="120" r="1" fill="#3C3B3B"/>
<circle cx="157" cy="120" r="1" fill="#3C3B3B"/>
<circle cx="169" cy="120" r="1" fill="#3C3B3B"/>
<circle cx="181" cy="120" r="1" fill="#3C3B3B"/>
<circle cx="193" cy="120" r="1" fill="#3C3B3B"/>
<circle cx="205" cy="120" r="1" fill="#3C3B3B"/>
<circle cx="217" cy="120" r="1" fill="#3C3B3B"/>
<circle cx="229" cy="120" r="1" fill="#3C3B3B"/>
<circle cx="241" cy="120" r="1" fill="#3C3B3B"/>
<circle cx="253" cy="120" r="1" fill="#3C3B3B"/>
<circle cx="265" cy="120" r="1" fill="#3C3B3B"/>
<circle cx="277" cy="120" r="1" fill="#3C3B3B"/>
<circle cx="289" cy="120" r="1" fill="#3C3B3B"/>
<circle cx="301" cy="120" r="1" fill="#3C3B3B"/>
<circle cx="313" cy="120" r="1" fill="#3C3B3B"/>
<circle cx="325" cy="120" r="1" fill="#3C3B3B"/>
<circle cx="337" cy="120" r="1" fill="#3C3B3B"/>
<circle cx="1" cy="137" r="1" fill="#3C3B3B"/>
<circle cx="13" cy="137" r="1" fill="#3C3B3B"/>
<circle cx="25" cy="137" r="1" fill="#3C3B3B"/>
<circle cx="37" cy="137" r="1" fill="#3C3B3B"/>
<circle cx="49" cy="137" r="1" fill="#3C3B3B"/>
<circle cx="61" cy="137" r="1" fill="#3C3B3B"/>
<circle cx="73" cy="137" r="1" fill="#3C3B3B"/>
<circle cx="85" cy="137" r="1" fill="#3C3B3B"/>
<circle cx="97" cy="137" r="1" fill="#3C3B3B"/>
<circle cx="109" cy="137" r="1" fill="#3C3B3B"/>
<circle cx="121" cy="137" r="1" fill="#3C3B3B"/>
<circle cx="133" cy="137" r="1" fill="#3C3B3B"/>
<circle cx="145" cy="137" r="1" fill="#3C3B3B"/>
<circle cx="157" cy="137" r="1" fill="#3C3B3B"/>
<circle cx="169" cy="137" r="1" fill="#3C3B3B"/>
<circle cx="181" cy="137" r="1" fill="#3C3B3B"/>
<circle cx="193" cy="137" r="1" fill="#3C3B3B"/>
<circle cx="205" cy="137" r="1" fill="#3C3B3B"/>
<circle cx="217" cy="137" r="1" fill="#3C3B3B"/>
<circle cx="229" cy="137" r="1" fill="#3C3B3B"/>
<circle cx="241" cy="137" r="1" fill="#3C3B3B"/>
<circle cx="253" cy="137" r="1" fill="#3C3B3B"/>
<circle cx="265" cy="137" r="1" fill="#3C3B3B"/>
<circle cx="277" cy="137" r="1" fill="#3C3B3B"/>
<circle cx="289" cy="137" r="1" fill="#3C3B3B"/>
<circle cx="301" cy="137" r="1" fill="#3C3B3B"/>
<circle cx="313" cy="137" r="1" fill="#3C3B3B"/>
<circle cx="325" cy="137" r="1" fill="#3C3B3B"/>
<circle cx="337" cy="137" r="1" fill="#3C3B3B"/>
<circle cx="1" cy="154" r="1" fill="#3C3B3B"/>
<circle cx="13" cy="154" r="1" fill="#3C3B3B"/>
<circle cx="25" cy="154" r="1" fill="#3C3B3B"/>
<circle cx="37" cy="154" r="1" fill="#3C3B3B"/>
<circle cx="49" cy="154" r="1" fill="#3C3B3B"/>
<circle cx="61" cy="154" r="1" fill="#3C3B3B"/>
<circle cx="73" cy="154" r="1" fill="#3C3B3B"/>
<circle cx="85" cy="154" r="1" fill="#3C3B3B"/>
<circle cx="97" cy="154" r="1" fill="#3C3B3B"/>
<circle cx="109" cy="154" r="1" fill="#3C3B3B"/>
<circle cx="121" cy="154" r="1" fill="#3C3B3B"/>
<circle cx="133" cy="154" r="1" fill="#3C3B3B"/>
<circle cx="145" cy="154" r="1" fill="#3C3B3B"/>
<circle cx="157" cy="154" r="1" fill="#3C3B3B"/>
<circle cx="169" cy="154" r="1" fill="#3C3B3B"/>
<circle cx="181" cy="154" r="1" fill="#3C3B3B"/>
<circle cx="193" cy="154" r="1" fill="#3C3B3B"/>
<circle cx="205" cy="154" r="1" fill="#3C3B3B"/>
<circle cx="217" cy="154" r="1" fill="#3C3B3B"/>
<circle cx="229" cy="154" r="1" fill="#3C3B3B"/>
<circle cx="241" cy="154" r="1" fill="#3C3B3B"/>
<circle cx="253" cy="154" r="1" fill="#3C3B3B"/>
<circle cx="265" cy="154" r="1" fill="#3C3B3B"/>
<circle cx="277" cy="154" r="1" fill="#3C3B3B"/>
<circle cx="289" cy="154" r="1" fill="#3C3B3B"/>
<circle cx="301" cy="154" r="1" fill="#3C3B3B"/>
<circle cx="313" cy="154" r="1" fill="#3C3B3B"/>
<circle cx="325" cy="154" r="1" fill="#3C3B3B"/>
<circle cx="337" cy="154" r="1" fill="#3C3B3B"/>
<circle cx="1" cy="171" r="1" fill="#3C3B3B"/>
<circle cx="13" cy="171" r="1" fill="#3C3B3B"/>
<circle cx="25" cy="171" r="1" fill="#3C3B3B"/>
<circle cx="37" cy="171" r="1" fill="#3C3B3B"/>
<circle cx="49" cy="171" r="1" fill="#3C3B3B"/>
<circle cx="61" cy="171" r="1" fill="#3C3B3B"/>
<circle cx="73" cy="171" r="1" fill="#3C3B3B"/>
<circle cx="85" cy="171" r="1" fill="#3C3B3B"/>
<circle cx="97" cy="171" r="1" fill="#3C3B3B"/>
<circle cx="109" cy="171" r="1" fill="#3C3B3B"/>
<circle cx="121" cy="171" r="1" fill="#3C3B3B"/>
<circle cx="133" cy="171" r="1" fill="#3C3B3B"/>
<circle cx="145" cy="171" r="1" fill="#3C3B3B"/>
<circle cx="157" cy="171" r="1" fill="#3C3B3B"/>
<circle cx="169" cy="171" r="1" fill="#3C3B3B"/>
<circle cx="181" cy="171" r="1" fill="#3C3B3B"/>
<circle cx="193" cy="171" r="1" fill="#3C3B3B"/>
<circle cx="205" cy="171" r="1" fill="#3C3B3B"/>
<circle cx="217" cy="171" r="1" fill="#3C3B3B"/>
<circle cx="229" cy="171" r="1" fill="#3C3B3B"/>
<circle cx="241" cy="171" r="1" fill="#3C3B3B"/>
<circle cx="253" cy="171" r="1" fill="#3C3B3B"/>
<circle cx="265" cy="171" r="1" fill="#3C3B3B"/>
<circle cx="277" cy="171" r="1" fill="#3C3B3B"/>
<circle cx="289" cy="171" r="1" fill="#3C3B3B"/>
<circle cx="301" cy="171" r="1" fill="#3C3B3B"/>
<circle cx="313" cy="171" r="1" fill="#3C3B3B"/>
<circle cx="325" cy="171" r="1" fill="#3C3B3B"/>
<circle cx="337" cy="171" r="1" fill="#3C3B3B"/>
<circle cx="1" cy="188" r="1" fill="#3C3B3B"/>
<circle cx="13" cy="188" r="1" fill="#3C3B3B"/>
<circle cx="25" cy="188" r="1" fill="#3C3B3B"/>
<circle cx="37" cy="188" r="1" fill="#3C3B3B"/>
<circle cx="49" cy="188" r="1" fill="#3C3B3B"/>
<circle cx="61" cy="188" r="1" fill="#3C3B3B"/>
<circle cx="73" cy="188" r="1" fill="#3C3B3B"/>
<circle cx="85" cy="188" r="1" fill="#3C3B3B"/>
<circle cx="97" cy="188" r="1" fill="#3C3B3B"/>
<circle cx="109" cy="188" r="1" fill="#3C3B3B"/>
<circle cx="121" cy="188" r="1" fill="#3C3B3B"/>
<circle cx="133" cy="188" r="1" fill="#3C3B3B"/>
<circle cx="145" cy="188" r="1" fill="#3C3B3B"/>
<circle cx="157" cy="188" r="1" fill="#3C3B3B"/>
<circle cx="169" cy="188" r="1" fill="#3C3B3B"/>
<circle cx="181" cy="188" r="1" fill="#3C3B3B"/>
<circle cx="193" cy="188" r="1" fill="#3C3B3B"/>
<circle cx="205" cy="188" r="1" fill="#3C3B3B"/>
<circle cx="217" cy="188" r="1" fill="#3C3B3B"/>
<circle cx="229" cy="188" r="1" fill="#3C3B3B"/>
<circle cx="241" cy="188" r="1" fill="#3C3B3B"/>
<circle cx="253" cy="188" r="1" fill="#3C3B3B"/>
<circle cx="265" cy="188" r="1" fill="#3C3B3B"/>
<circle cx="277" cy="188" r="1" fill="#3C3B3B"/>
<circle cx="289" cy="188" r="1" fill="#3C3B3B"/>
<circle cx="301" cy="188" r="1" fill="#3C3B3B"/>
<circle cx="313" cy="188" r="1" fill="#3C3B3B"/>
<circle cx="325" cy="188" r="1" fill="#3C3B3B"/>
<circle cx="337" cy="188" r="1" fill="#3C3B3B"/>
<circle cx="1" cy="205" r="1" fill="#3C3B3B"/>
<circle cx="13" cy="205" r="1" fill="#3C3B3B"/>
<circle cx="25" cy="205" r="1" fill="#3C3B3B"/>
<circle cx="37" cy="205" r="1" fill="#3C3B3B"/>
<circle cx="49" cy="205" r="1" fill="#3C3B3B"/>
<circle cx="61" cy="205" r="1" fill="#3C3B3B"/>
<circle cx="73" cy="205" r="1" fill="#3C3B3B"/>
<circle cx="85" cy="205" r="1" fill="#3C3B3B"/>
<circle cx="97" cy="205" r="1" fill="#3C3B3B"/>
<circle cx="109" cy="205" r="1" fill="#3C3B3B"/>
<circle cx="121" cy="205" r="1" fill="#3C3B3B"/>
<circle cx="133" cy="205" r="1" fill="#3C3B3B"/>
<circle cx="145" cy="205" r="1" fill="#3C3B3B"/>
<circle cx="157" cy="205" r="1" fill="#3C3B3B"/>
<circle cx="169" cy="205" r="1" fill="#3C3B3B"/>
<circle cx="181" cy="205" r="1" fill="#3C3B3B"/>
<circle cx="193" cy="205" r="1" fill="#3C3B3B"/>
<circle cx="205" cy="205" r="1" fill="#3C3B3B"/>
<circle cx="217" cy="205" r="1" fill="#3C3B3B"/>
<circle cx="229" cy="205" r="1" fill="#3C3B3B"/>
<circle cx="241" cy="205" r="1" fill="#3C3B3B"/>
<circle cx="253" cy="205" r="1" fill="#3C3B3B"/>
<circle cx="265" cy="205" r="1" fill="#3C3B3B"/>
<circle cx="277" cy="205" r="1" fill="#3C3B3B"/>
<circle cx="289" cy="205" r="1" fill="#3C3B3B"/>
<circle cx="301" cy="205" r="1" fill="#3C3B3B"/>
<circle cx="313" cy="205" r="1" fill="#3C3B3B"/>
<circle cx="325" cy="205" r="1" fill="#3C3B3B"/>
<circle cx="337" cy="205" r="1" fill="#3C3B3B"/>
<circle cx="1" cy="222" r="1" fill="#3C3B3B"/>
<circle cx="13" cy="222" r="1" fill="#3C3B3B"/>
<circle cx="25" cy="222" r="1" fill="#3C3B3B"/>
<circle cx="37" cy="222" r="1" fill="#3C3B3B"/>
<circle cx="49" cy="222" r="1" fill="#3C3B3B"/>
<circle cx="61" cy="222" r="1" fill="#3C3B3B"/>
<circle cx="73" cy="222" r="1" fill="#3C3B3B"/>
<circle cx="85" cy="222" r="1" fill="#3C3B3B"/>
<circle cx="97" cy="222" r="1" fill="#3C3B3B"/>
<circle cx="109" cy="222" r="1" fill="#3C3B3B"/>
<circle cx="121" cy="222" r="1" fill="#3C3B3B"/>
<circle cx="133" cy="222" r="1" fill="#3C3B3B"/>
<circle cx="145" cy="222" r="1" fill="#3C3B3B"/>
<circle cx="157" cy="222" r="1" fill="#3C3B3B"/>
<circle cx="169" cy="222" r="1" fill="#3C3B3B"/>
<circle cx="181" cy="222" r="1" fill="#3C3B3B"/>
<circle cx="193" cy="222" r="1" fill="#3C3B3B"/>
<circle cx="205" cy="222" r="1" fill="#3C3B3B"/>
<circle cx="217" cy="222" r="1" fill="#3C3B3B"/>
<circle cx="229" cy="222" r="1" fill="#3C3B3B"/>
<circle cx="241" cy="222" r="1" fill="#3C3B3B"/>
<circle cx="253" cy="222" r="1" fill="#3C3B3B"/>
<circle cx="265" cy="222" r="1" fill="#3C3B3B"/>
<circle cx="277" cy="222" r="1" fill="#3C3B3B"/>
<circle cx="289" cy="222" r="1" fill="#3C3B3B"/>
<circle cx="301" cy="222" r="1" fill="#3C3B3B"/>
<circle cx="313" cy="222" r="1" fill="#3C3B3B"/>
<circle cx="325" cy="222" r="1" fill="#3C3B3B"/>
<circle cx="337" cy="222" r="1" fill="#3C3B3B"/>
</svg>
